PathFileType	4	(X/Y/Z)	F:\MotionCapture\20160217\3\Generated_files\EMG_Fprce_test07-Dynamic.trc
DataRate	CameraRate	NumFrames	NumMarkers	Units	OrigDataRate	OrigDataStartFrame	OrigNumFrames
120.00	120.00	       6	39	mm	120.00	470	       751
Frame#	Time	Top.Head			Front.Head			Rear.Head			R.Shoulder			R.Offset			R.Elbow			R.Wrist			L.Shoulder			L.Elbow			L.Wrist			R.ASIS			L.ASIS			V.Sacral			R.Thigh			R.Knee			R.Shank			R.Ankle			R.Heel			R.Toe			L.Thigh			L.Knee			L.Shank			L.Ankle			L.Heel			L.Toe			R1			R2			R3			R4			R5			R6			R7			L1			L2			L3			L4			L5			L6			L7			V_Mid_ASIS			V_Pelvis_Origin			V_R.Hip_JC			V_L.Hip_JC			V_R.Knee_JC			V_L.Knee_JC			V_R.Ankle_JC			V_L.Ankle_JC			V_Mid_Hip			V_Mid_Shoulder			V_R.Hand			V_L.Hand			V_R.Toe_Offset_Static			V_L.Toe_Offset_Static			V_R.Toe_Offset			V_L.Toe_Offset			
		X1	Y1	Z1	X2	Y2	Z2	X3	Y3	Z3	X4	Y4	Z4	X5	Y5	Z5	X6	Y6	Z6	X7	Y7	Z7	X8	Y8	Z8	X9	Y9	Z9	X10	Y10	Z10	X11	Y11	Z11	X12	Y12	Z12	X13	Y13	Z13	X14	Y14	Z14	X15	Y15	Z15	X16	Y16	Z16	X17	Y17	Z17	X18	Y18	Z18	X19	Y19	Z19	X20	Y20	Z20	X21	Y21	Z21	X22	Y22	Z22	X23	Y23	Z23	X24	Y24	Z24	X25	Y25	Z25	X26	Y26	Z26	X27	Y27	Z27	X28	Y28	Z28	X29	Y29	Z29	X30	Y30	Z30	X31	Y31	Z31	X32	Y32	Z32	X33	Y33	Z33	X34	Y34	Z34	X35	Y35	Z35	X36	Y36	Z36	X37	Y37	Z37	X38	Y38	Z38	X39	Y39	Z39	

470	3.908	-1315.00537	247.56837	1732.14429	-1426.44983	248.71632	1648.43433	-1206.16833	236.86218	1663.68555	-1253.28149	434.22629	1432.47144	-1134.91174	169.47388	1282.07520	-1244.34570	556.08148	1112.24817	-1466.37585	535.31848	971.51471	-1288.42261	29.69702	1425.11072	-1236.48364	-78.59583	1111.93921	-1311.79956	-100.68082	864.01379	-1320.64526	383.84891	942.00452	-1353.42432	99.76907	956.32654	-1116.30823	208.62758	951.36871	-1319.91016	307.51080	559.46326	-1232.72241	336.87567	459.67450	-1201.69250	245.68121	233.76155	-1129.84229	302.91034	70.47251	-1062.42322	235.22939	48.03946	-1273.26721	287.82065	38.84340	-1487.88367	117.27338	684.03522	-1442.59619	50.30197	499.20248	-1437.18530	128.32574	355.77353	-1290.18140	97.19791	115.79039	-1239.45642	169.17641	114.43583	-1413.56274	76.02945	61.22364	-1318.94360	269.47617	37.50794	-1280.47449	250.74844	46.22158	-1184.00488	212.90100	58.11544	-1110.31628	207.27950	47.03764	-1091.67175	280.02039	44.30527	-1165.02954	310.39578	34.64659	-1230.48535	330.39868	33.75296	-1458.90771	87.93214	49.13889	-1434.67139	108.90332	61.76791	-1362.87769	169.65695	91.83508	-1282.19360	188.08064	103.46912	-1254.26355	123.36671	104.00269	-1315.85425	76.41847	76.47449	-1372.03186	57.23911	62.39743																																																	3498.42603	-1414.00806	-1541.53137	
471	3.917	-1327.69934	248.25851	1730.50146	-1438.77246	249.39117	1646.70825	-1219.17761	237.43384	1661.88782	-1266.00305	434.56729	1431.08862	-1145.87866	169.86275	1280.63269	-1261.01953	558.14087	1111.53101	-1488.75537	534.97705	979.50092	-1300.72510	30.27881	1423.12939	-1242.86194	-78.94762	1111.47668	-1310.39343	-102.88992	861.66046	-1332.02319	384.28067	940.24158	-1366.44275	100.42104	954.24194	-1127.72437	208.12900	949.19794	-1326.22095	307.52341	558.00812	-1237.54431	336.79526	458.51730	-1205.16821	246.23358	233.38866	-1129.02393	301.84814	70.73815	-1062.66638	234.69678	48.79972	-1273.38416	288.42203	39.45523	-1502.04138	120.03139	683.84680	-1459.93359	53.37548	498.61890	-1460.95251	131.05092	355.60556	-1328.55481	98.94283	107.21568	-1277.01892	170.31046	103.21419	-1455.39526	79.71554	60.43086	-1319.25269	269.77737	37.47242	-1280.61169	250.82326	46.12579	-1184.31226	212.75011	58.17067	-1110.77136	206.64838	47.54125	-1091.92249	279.01370	45.11243	-1165.12378	310.16217	34.67728	-1230.39331	330.41113	33.64256	-1502.82849	92.67533	54.69973	-1475.72375	113.39466	62.86944	-1401.09033	172.55586	88.30759	-1319.24915	189.69052	94.14626	-1292.50317	125.12258	93.64057	-1357.27246	79.05570	69.50179	-1414.20422	60.66229	59.55948	
472	3.925	-1340.24756	248.52225	1728.39380	-1451.03406	249.94415	1644.63904	-1231.93005	238.02847	1659.99182	-1277.97534	434.71683	1429.38379	-1158.45667	170.32649	1278.59912	-1278.30762	560.58673	1110.66858	-1510.20947	535.29962	987.52850	-1313.63159	30.72888	1421.05786	-1249.60779	-79.05070	1111.31409	-1309.28381	-104.93916	859.66754	-1342.42664	385.12552	938.09277	-1379.47180	101.02813	952.07373	-1139.91821	208.07460	946.39050	-1332.88525	307.82755	556.17310	-1243.10559	337.17126	457.71780	-1207.76135	246.57117	232.67961	-1127.58875	301.07034	72.16827	-1062.97168	233.72305	49.31698	-1273.37097	288.54868	39.29567	-1516.23645	122.67233	683.14099	-1476.41101	56.59696	497.42102	-1483.70203	134.85614	355.36169	-1370.56580	101.62157	98.08237	-1314.73291	170.92137	92.37814	-1497.42395	83.82226	61.24580	-1319.14929	270.26538	37.95335	-1280.79724	250.99019	46.08014	-1185.04956	212.57106	58.37538	-1111.39368	206.04309	47.89705	-1090.65930	278.95135	46.50928	-1165.11475	309.46890	34.39898	-1230.28894	330.33792	33.54160	-1545.20996	99.19450	60.79470	-1516.76782	117.95102	65.62864	-1439.34949	175.29636	85.41975	-1357.87817	190.96881	86.31973	-1331.49426	125.42186	83.24819	-1397.84570	81.80973	62.23670	-1456.83594	63.76446	57.56422	
473	3.933	-1352.97180	248.82977	1726.32996	-1463.76941	250.30869	1642.56067	-1245.08142	238.27513	1657.97644	-1290.42847	435.19122	1427.33093	-1172.82996	170.85667	1276.42224	-1296.01904	562.87378	1109.43164	-1531.40137	534.56281	994.87860	-1326.22241	31.12862	1418.62585	-1256.31592	-79.15965	1110.82983	-1308.50891	-106.79829	857.77600	-1353.67529	385.92590	936.10944	-1392.32947	101.80006	949.37592	-1151.33679	207.18137	944.21619	-1339.44482	308.22644	554.40125	-1248.19080	336.93674	456.74069	-1210.59241	246.68236	232.37654	-1129.02344	300.31451	72.44427	-1063.13196	232.89877	50.38138	-1273.65771	288.92542	39.23048	-1530.19446	125.15157	681.72290	-1493.23523	59.30999	495.88388	-1506.40723	138.09419	355.00961	-1411.55322	104.67812	89.89204	-1351.76929	170.74211	80.38203	-1537.61914	88.33478	63.04575	-1319.65186	270.56628	37.90959	-1281.05493	251.22876	46.14218	-1185.69678	212.35529	58.47415	-1111.90039	205.33076	48.52905	-1090.74622	278.42645	47.10077	-1165.08862	309.08896	34.46975	-1230.26355	330.24734	33.29522	-1585.00427	102.53721	63.92014	-1556.64526	122.27096	68.32578	-1478.11743	179.02879	84.80000	-1396.02661	193.81934	81.27580	-1371.43591	125.75686	73.56373	-1439.54724	84.01416	57.69041	-1498.46643	67.03474	56.88857																																																	3505.63013	-1419.98926	-1505.47510	-1246.23840	338.14655	-2.01278	
474	3.942	-1365.54346	249.34727	1723.99536	-1476.49194	250.85916	1640.12341	-1257.34216	238.33644	1655.28259	-1303.23596	435.62643	1425.08691	-1184.36719	170.87685	1273.99548	-1312.59863	564.54889	1107.88184	-1552.21790	534.23383	1001.93573	-1339.18799	31.26580	1416.54456	-1263.18188	-79.11769	1110.43384	-1308.38721	-109.09798	856.23804	-1366.54224	385.32593	934.69574	-1405.50964	102.38132	946.55969	-1164.24902	206.45750	942.35736	-1346.67224	309.24661	552.58594	-1253.65649	337.21753	455.76923	-1213.38501	246.25230	231.78014				-1064.16150	231.67726	51.06764	-1273.95581	289.56580	39.65756	-1543.89050	127.34149	679.99341	-1508.62805	62.61442	494.03146	-1528.56311	141.62144	354.39545	-1440.90979	101.43768	88.37397	-1389.58301	170.91080	70.75227	-1578.19922	91.83403	65.76849	-1315.20239	267.09106	32.51065	-1281.49048	251.72884	46.16410	-1186.52100	212.07498	58.71862	-1113.11243	204.33350	49.05880	-1091.01709	277.38428	47.79053	-1164.85266	308.59399	34.54737	-1230.20862	330.05927	33.11621	-1624.83350	106.55784	69.92007	-1596.30286	125.69311	72.19207	-1515.42920	180.07840	82.01516	-1434.17078	194.76186	74.94216	-1410.15320	126.79601	66.12743	-1480.62646	85.51045	53.75140	-1539.77039	69.64834	56.66308																																																	-1273.95581	289.56580	39.65756	-1271.54834	354.13889	22.38778	-1241.96252	335.43503	-1.48721	3486.92651	-1415.45740	-1580.26501	-1473.86633	84.06925	-75.52106	
475	3.950	-1378.36609	249.48897	1721.35095	-1489.09961	251.56253	1637.73071	-1270.19434	238.74171	1652.79028	-1315.23279	435.64142	1422.35889	-1196.08057	170.64841	1271.50574	-1330.00403	566.54749	1106.51624	-1572.53625	534.34283	1008.69208	-1351.54468	31.41962	1413.82739	-1269.97449	-79.31762	1109.79834	-1308.27930	-110.91507	854.84094	-1376.41296	386.83887	931.71680	-1418.56543	103.15238	943.24335	-1176.82458	205.18364	939.55151	-1354.04272	310.34320	550.68628	-1259.78943	337.69531	454.88718	-1216.43066	246.32661	231.26741	-1130.03955	299.71582	72.41750	-1064.41699	230.29536	52.15848	-1273.33447	288.53583	38.18279	-1557.88354	129.54141	677.49664	-1523.61536	66.54411	491.23230	-1550.40710	144.73665	353.77979	-1474.16602	99.63604	86.80291	-1428.08154	171.02884	62.22889	-1617.85925	94.63214	69.84708	-1315.67786	267.54565	32.19673	-1282.14502	252.38718	45.70608	-1187.14392	211.76112	58.84425	-1113.78430	203.62364	49.83041	-1091.42529	276.15793	48.72149	-1164.73657	308.14014	34.51373	-1230.07068	329.99643	33.04836	-1663.85889	110.60105	76.62720	-1635.14600	128.52550	76.97560	-1552.85352	182.05675	80.92218	-1471.92639	195.67770	69.52949	-1448.78418	127.24650	59.76902	-1521.26563	87.10132	51.31913	-1579.96814	72.29792	57.91188																																																	-914.07593	275.32632	-71.00230	
